HIERARCHY
ROOT ui
{
	 OFFSET 0 0 0
	 CHANNELS 3 XPosition YPosition Z Position
	 EndSite
	 {
	 OFFSET 0 -1 0
	 }
}
ROOT li
{
	 OFFSET 0 0 0
	 CHANNELS 3 XPosition YPosition Z Position
	 EndSite
	 {
	 OFFSET 0 -1 0
	 }
}
ROOT ul
{
	 OFFSET 0 0 0
	 CHANNELS 3 XPosition YPosition Z Position
	 EndSite
	 {
	 OFFSET 0 -1 0
	 }
}
ROOT ll
{
	 OFFSET 0 0 0
	 CHANNELS 3 XPosition YPosition Z Position
	 EndSite
	 {
	 OFFSET 0 -1 0
	 }
}
ROOT tt
{
	 OFFSET 0 0 0
	 CHANNELS 3 XPosition YPosition Z Position
	 EndSite
	 {
	 OFFSET 0 -1 0
	 }
}
ROOT tb
{
	 OFFSET 0 0 0
	 CHANNELS 3 XPosition YPosition Z Position
	 EndSite
	 {
	 OFFSET 0 -1 0
	 }
}
ROOT td
{
	 OFFSET 0 0 0
	 CHANNELS 3 XPosition YPosition Z Position
	 EndSite
	 {
	 OFFSET 0 -1 0
	 }
}
ROOT v
{
	 OFFSET 0 0 0
	 CHANNELS 3 XPosition YPosition Z Position
	 EndSite
	 {
	 OFFSET 0 -1 0
	 }
}
ROOT bn
{
	 OFFSET 0 0 0
	 CHANNELS 3 XPosition YPosition Z Position
	 EndSite
	 {
	 OFFSET 0 -1 0
	 }
}
MOTION
Frames: 32
Frame Time: 0.002
-0.06268840408325195	9.631350040435791E-4	0		0.5547086791992187	-2.674240234375	0		-1.0229453125	0.2668704833984375	0		-0.4395138244628906	-3.235928466796875	0		2.527406982421875	-0.9105693359375	0		3.829175537109375	-0.31332275390625	0		5.311994140625	0.014396618843078614	0		5.8852958984375	0.3217681884765625	0		-0.2730897216796875	5.924623046875	0		
0.013924398422241212	-1.734890043735504E-4	0		0.6119743041992187	-2.6931201171875	0		-1.0293583984375	0.26396832275390625	0		-0.434884521484375	-3.22801025390625	0		2.48082861328125	-0.9220083618164062	0		3.7936591796875	-0.32196444702148436	0		5.28963232421875	0.015539660453796386	0		5.89038720703125	0.2641058349609375	0		-0.2874310302734375	5.91381298828125	0		
-0.04242447662353516	-4.010879993438721E-4	0		0.6105576171875	-2.692166748046875	0		-1.03560205078125	0.2700492248535156	0		-0.39322216796875	-3.220646728515625	0		2.478196044921875	-0.9401017456054688	0		3.812146484375	-0.33340786743164064	0		5.2801337890625	0.004475934982299805	0		5.87971337890625	0.3090419921875	0		-0.141093017578125	5.94565869140625	0		
0.007274610996246338	-0.0011900299787521362	0		0.6102142944335938	-2.68925048828125	0		-1.0319471435546874	0.26596392822265624	0		-0.48121026611328127	-3.191418212890625	0		2.44677001953125	-0.9467965698242188	0		3.7978701171875	-0.3313963623046875	0		5.258087890625	0.021576202392578125	0		5.8843369140625	0.2824635314941406	0		-0.2735220947265625	5.9235244140625	0		
0.01009089469909668	0.0026756839752197265	0		0.5610473022460938	-2.677647216796875	0		-1.0331651611328125	0.2669234619140625	0		-0.4251574096679688	-3.164311767578125	0		2.453407958984375	-0.9530706787109375	0		3.781779296875	-0.3203824462890625	0		5.2527744140625	0.016405643463134764	0		5.89130419921875	0.2834398498535156	0		-0.30763275146484376	5.9189404296875	0		
0.00488474178314209	6.266099810600281E-4	0		0.6096722412109375	-2.68550390625	0		-1.048361328125	0.2650556640625	0		-0.45902816772460936	-3.13592529296875	0		2.42309912109375	-0.959835693359375	0		3.77429931640625	-0.3405270080566406	0		5.2326435546875	0.019422800064086913	0		5.88681201171875	0.2691981506347656	0		-0.2745272827148437	5.924345703125	0		
0.0037953519821166994	0.0014814870357513427	0		0.5986270751953126	-2.6755234375	0		-1.0115632934570313	0.2573893127441406	0		-0.40587530517578124	-3.11184912109375	0		2.421626220703125	-0.9830581665039062	0		3.77234521484375	-0.3297831420898438	0		5.224599609375	0.02323028564453125	0		5.8860322265625	0.27033935546875	0		-0.28959524536132814	5.913416015625	0		
-0.004314868927001953	-0.00460291576385498	0		0.5975330200195312	-2.67473046875	0		-1.0536175537109376	0.2548365173339844	0		-0.48340219116210936	-3.070897216796875	0		2.403470947265625	-0.9900731201171875	0		3.718317626953125	-0.3293134155273437	0		5.20053564453125	0.02023558807373047	0		5.89502294921875	0.22608567810058594	0		-0.1570903778076172	5.93528173828125	0		
0.0018674659729003907	0.003057246923446655	0		0.5585498046875	-2.67242578125	0		-1.054529541015625	0.2556327362060547	0		-0.44808181762695315	-3.04765087890625	0		2.4004619140625	-0.9933533935546875	0		3.740296875	-0.33500186157226564	0		5.19961669921875	0.020860965728759766	0		5.88465185546875	0.27242352294921873	0		-0.27500625610351564	5.92477392578125	0		
0.005087110996246338	0.006707939147949218	0		0.55491259765625	-2.65368994140625	0		-1.045362060546875	0.2552264862060547	0		-0.48738693237304687	-3.00535693359375	0		2.396564697265625	-0.99566943359375	0		3.73543359375	-0.3363427429199219	0		5.190103515625	0.04256895065307617	0		5.90161767578125	0.22773799133300782	0		-0.3067853698730469	5.9169501953125	0		
0.0043653521537780765	0.007358129978179932	0		0.5941260986328125	-2.652646484375	0		-0.9881275024414062	0.2520496978759766	0		-0.46781182861328124	-2.9789912109375	0		2.365921142578125	-0.9876443481445313	0		3.71899951171875	-0.315563720703125	0		5.18219189453125	0.03019725227355957	0		5.8932548828125	0.22885426330566405	0		-0.2742550659179688	5.92312060546875	0		
0.006514595031738281	-0.00810109519958496	0		0.5674879150390625	-2.6486943359375	0		-1.033847900390625	0.2453269348144531	0		-0.49092626953125	-2.939058837890625	0		2.37408740234375	-1.0002564697265626	0		3.68423291015625	-0.3245762634277344	0		5.18157861328125	0.030659709930419922	0		5.88795947265625	0.25225392150878906	0		-0.289855224609375	5.91393505859375	0		
-0.007895898818969727	-0.0013852540254592895	0		0.5928720092773437	-2.6515849609375	0		-0.9973465576171875	0.24531379699707032	0		-0.46705999755859373	-2.908896240234375	0		2.34841552734375	-1.0094363403320312	0		3.679650146484375	-0.3291015625	0		5.15421533203125	0.04045354461669922	0		5.8827451171875	0.27554013061523436	0		-0.15689315795898437	5.9344765625	0		
0.006510913848876953	-0.015178882598876953	0		0.5445784912109375	-2.6404599609375	0		-1.0347200927734375	0.24631477355957032	0		-0.4940501708984375	-2.87706005859375	0		2.3370087890625	-1.0089020385742187	0		3.672095947265625	-0.33965750122070315	0		5.1548916015625	0.044758472442626956	0		5.88850634765625	0.21352931213378906	0		-0.2894609375	5.91387109375	0		
0.013351479530334472	-0.007943726062774659	0		0.5934437866210938	-2.627862548828125	0		-0.9979810180664063	0.246128173828125	0		-0.4957829895019531	-2.83668310546875	0		2.327783935546875	-1.004481689453125	0		3.65030419921875	-0.3070773010253906	0		5.1408251953125	0.05820394515991211	0		5.8919892578125	0.23105412292480468	0		-0.28958859252929686	5.9142177734375	0		
-0.001576923966407776	0.006527338981628418	0		0.5314633178710938	-2.6127041015625	0		-1.0021732788085937	0.24245948791503907	0		-0.5133408813476562	-2.79315966796875	0		2.360679443359375	-1.000775146484375	0		3.651965087890625	-0.31993597412109376	0		5.14068798828125	0.0583563232421875	0		5.88703466796875	0.25392976379394533	0		-0.2895977478027344	5.9144736328125	0		
0.006095901012420655	-0.014432934761047364	0		0.583314453125	-2.618333740234375	0		-0.9352484130859375	0.23763833618164062	0		-0.5080258483886719	-2.7670693359375	0		2.31262060546875	-1.0019521484375	0		3.63709619140625	-0.30963397216796873	0		5.1176787109375	0.05876207733154297	0		5.8870224609375	0.25398423767089845	0		-0.1561721954345703	5.93464990234375	0		
0.006207829952239991	-0.014369854927062988	0		0.5334822387695313	-2.61053662109375	0		-1.0111675415039063	0.23585676574707032	0		-0.5232973022460937	-2.72176171875	0		2.3385146484375	-1.0153241577148437	0		3.62517333984375	-0.3114671630859375	0		5.11700146484375	0.07274649810791016	0		5.8912734375	0.23642710876464842	0		-0.29023492431640624	5.915720703125	0		
-0.008344634056091309	-1.762080043554306E-4	0		0.5616605834960937	-2.610995849609375	0		-1.0060011596679688	0.2307748565673828	0		-0.546621826171875	-2.68842431640625	0		2.26391796875	-1.0022820434570312	0		3.588452392578125	-0.308019775390625	0		5.09525732421875	0.07395295715332031	0		5.88844873046875	0.21377618408203125	0		-0.2888880615234375	5.9146826171875	0		
0.016952260971069336	-0.0046679949760437016	0		0.5431442260742188	-2.5988427734375	0		-0.996517578125	0.23854356384277345	0		-0.5107264099121094	-2.649058837890625	0		2.28223828125	-1.0037196655273437	0		3.621666748046875	-0.3177106018066406	0		5.0925888671875	0.07178282928466796	0		5.89237548828125	0.23051396179199218	0		-0.30536541748046875	5.91682568359375	0		
0.01438746452331543	-0.007824673175811767	0		0.5596510620117188	-2.593298095703125	0		-0.9431429443359375	0.23057093811035156	0		-0.5517940673828124	-2.6146220703125	0		2.247818603515625	-0.995450927734375	0		3.573625	-0.2852660827636719	0		5.08128173828125	0.08565591430664063	0		5.89271533203125	0.22992324829101562	0		-0.287777587890625	5.91437646484375	0		
1.9512900710105897E-4	0.006119536876678467	0		0.5223211059570313	-2.584021240234375	0		-0.9425414428710938	0.23031536865234375	0		-0.5357247314453125	-2.579116943359375	0		2.257207763671875	-1.0079207153320313	0		3.5598994140625	-0.3064225158691406	0		5.0759404296875	0.0893560791015625	0		5.88946533203125	0.21201429748535155	0		-0.2870329895019531	5.9141044921875	0		
0.008582572937011718	-0.015348563194274903	0		0.5348501586914063	-2.59156494140625	0		-1.0128228759765625	0.23105946350097656	0		-0.5657088012695313	-2.55398876953125	0		2.231963623046875	-1.002939697265625	0		3.549837890625	-0.2907032165527344	0		5.06952783203125	0.08099622344970703	0		5.88511181640625	0.2338070068359375	0		-0.15384027099609374	5.93477197265625	0		
-0.005400571823120117	-0.0015368670225143432	0		0.5297943725585937	-2.57790380859375	0		-0.9350962524414063	0.22451383972167968	0		-0.530707763671875	-2.53690087890625	0		2.235573974609375	-1.01445849609375	0		3.570450927734375	-0.30351498413085937	0		5.06136572265625	0.08259754180908203	0		5.894208984375	0.22730619812011718	0		-0.28618765258789064	5.9143720703125	0		
0.0025992929935455323	0.004890347003936767	0		0.5336741943359375	-2.574431396484375	0		-0.9979456787109375	0.24104029846191405	0		-0.6230447998046875	-2.480937255859375	0		2.228485595703125	-1.0118695068359376	0		3.52462939453125	-0.2843772888183594	0		5.057369140625	0.08907872772216797	0		5.89484423828125	0.2262005615234375	0		-0.26997076416015625	5.9236865234375	0		
0.018361196517944336	-0.009845216751098633	0		0.5605220947265624	-2.57835107421875	0		-0.939135986328125	0.22868391418457032	0		-0.5491539916992187	-2.482533447265625	0		2.223324462890625	-1.0193562622070313	0		3.52332373046875	-0.3029632568359375	0		5.02738134765625	0.09090406036376954	0		5.88583349609375	0.27034490966796876	0		-0.26881301879882813	5.9231845703125	0		
0.004620018005371093	0.0038372199535369874	0		0.5266693725585937	-2.566382568359375	0		-0.9380836181640625	0.22817140197753907	0		-0.574019775390625	-2.471665283203125	0		2.21617041015625	-1.030848876953125	0		3.513587890625	-0.2884555358886719	0		5.0013564453125	0.08563082122802734	0		5.891427734375	0.24640211486816407	0		-0.15039181518554687	5.933873046875	0		
-0.0013844549655914306	-0.003620870113372803	0		0.5516031494140625	-2.572330322265625	0		-0.9369746704101563	0.22763851928710938	0		-0.5448550415039063	-2.462637939453125	0		2.201131103515625	-1.038246337890625	0		3.49045361328125	-0.30377505493164064	0		5.00246044921875	0.08491728210449219	0		5.88735791015625	0.267742919921875	0		-0.2843747863769531	5.915369140625	0		
0.0068636579513549805	0.0026954638957977293	0		0.513670166015625	-2.571332275390625	0		-0.9887110595703125	0.23490438842773437	0		-0.5957366943359375	-2.4584013671875	0		2.208127685546875	-1.0459945068359375	0		3.472708740234375	-0.2961913757324219	0		4.98548583984375	0.07645758056640625	0		5.888169921875	0.2663683166503906	0		-0.2830138854980469	5.91480322265625	0		
0.015137508392333984	0.009011484146118165	0		0.5389617309570313	-2.55729736328125	0		-0.9114971923828125	0.23620561218261718	0		-0.56247216796875	-2.4464443359375	0		2.17224267578125	-1.047092529296875	0		3.492739990234375	-0.30519528198242185	0		4.98285595703125	0.08877048492431641	0		5.90118798828125	0.2748933410644531	0		-0.2975780944824219	5.9164833984375	0		
0.013251869201660157	0.004492230892181396	0		0.5001390686035156	-2.550273193359375	0		-0.9202955932617187	0.23683282470703124	0		-0.5702476806640625	-2.436848388671875	0		2.1932783203125	-1.054056640625	0		3.45122900390625	-0.2842532653808594	0		4.97505078125	0.08915966796875	0		5.88983349609375	0.26354800415039065	0		-0.2991031188964844	5.9189765625	0		
0.014413744926452636	0.003946552991867066	0		0.52715087890625	-2.553240478515625	0		-0.9191231079101563	0.2363296356201172	0		-0.5712274169921875	-2.439336669921875	0		2.149212890625	-1.0660081787109374	0		3.434026123046875	-0.3076758728027344	0		4.94914306640625	0.0838358383178711	0		5.88094775390625	0.3057567138671875	0		-0.13223028564453124	5.945904296875	0		
